<svg width="64" height="64" viewBox="0 0 64 64" fill="none" xmlns="http://www.w3.org/2000/svg">
  <rect width="64" height="64" rx="14" fill="#0A0A0A"/>
  <path d="M18 43.2C21.25 46.15 25.78 48 31.92 48C39.44 48 45.8 44.42 45.8 37.86C45.8 31.76 40.77 29.84 33.25 28.46C27.83 27.46 25.8 26.74 25.8 24.46C25.8 22.42 27.75 21.22 31.28 21.22C35.12 21.22 38.27 22.54 41.07 24.94L44.84 19.88C41.36 16.96 36.84 15.5 31.45 15.5C24.2 15.5 18.83 19.24 18.83 24.96C18.83 31.18 23.86 33.14 31.17 34.39C36.92 35.39 38.75 36.24 38.75 38.42C38.75 40.66 36.59 42.03 32.08 42.03C27.79 42.03 24.2 40.54 21.31 37.98L18 43.2Z" fill="white"/>
</svg>
